<?xml version="1.0" encoding="UTF-8" standalone="no"?>
<svg
   width="1em"
   height="1em"
   preserveAspectRatio="xMidYMid meet"
   viewBox="0 0 24 24"
   style="-ms-transform: rotate(360deg); -webkit-transform: rotate(360deg); transform: rotate(360deg);"
   version="1.1"
   id="svg6"
   sodipodi:docname="bookmark-add-24-filled.svg"
   inkscape:version="1.1 (c68e22c387, 2021-05-23)"
   xmlns:inkscape="http://www.inkscape.org/namespaces/inkscape"
   xmlns:sodipodi="http://sodipodi.sourceforge.net/DTD/sodipodi-0.dtd"
   xmlns="http://www.w3.org/2000/svg"
   xmlns:svg="http://www.w3.org/2000/svg">
  <defs
     id="defs10" />
  <sodipodi:namedview
     id="namedview8"
     pagecolor="#ffffff"
     bordercolor="#666666"
     borderopacity="1.0"
     inkscape:pageshadow="2"
     inkscape:pageopacity="0.0"
     inkscape:pagecheckerboard="0"
     showgrid="false"
     inkscape:zoom="34.333333"
     inkscape:cx="11.985437"
     inkscape:cy="12.014563"
     inkscape:window-width="1920"
     inkscape:window-height="1009"
     inkscape:window-x="-8"
     inkscape:window-y="-8"
     inkscape:window-maximized="1"
     inkscape:current-layer="g4" />
  <g
     fill="none"
     id="g4">
    <path
       d="M 23,6.5 C 23,3.4624318 20.537566,1.0000024 17.5,1.0000024 14.462434,1.0000024 12,3.4624318 12,6.5 c 0,3.0375682 2.462434,5.499998 5.5,5.499998 3.037566,0 5.5,-2.4624298 5.5,-5.499998 z M 14.496,7 c -0.666666,0 -0.666666,-1 0,-1 2.000333,0 4.000667,0 6.001,0 0.666666,0 0.666666,1 0,1 -2.000333,0 -4.000667,0 -6.001,0 z m 3.004,6 c 0.517,0 1.02,-0.06 1.5,-0.174 v 8.42 c -0.0012,0.609931 -0.691302,0.963388 -1.187,0.608 l -5.811,-4.181 -5.812,4.18 c -0.4958374,0.356721 -1.1873363,0.0028 -1.188,-0.608 V 6.25 C 5.002,4.4550746 6.4570746,3 8.252,3 h 3.77 C 9.2570321,7.3269578 12.36506,13.000612 17.5,13 Z"
       fill="#444444"
       id="path2"
       sodipodi:nodetypes="sssssccccccccccccsscc" />
  </g>
</svg>
