<?xml version="1.0" encoding="UTF-8"?>
<!DOCTYPE svg PUBLIC "-//W3C//DTD SVG 1.1//EN" "http://www.w3.org/Graphics/SVG/1.1/DTD/svg11.dtd">
<!-- Creator: CorelDRAW 2021 (64-Bit) -->
<svg xmlns="http://www.w3.org/2000/svg" xml:space="preserve" width="156.21mm" height="162.56mm" version="1.1" style="shape-rendering:geometricPrecision; text-rendering:geometricPrecision; image-rendering:optimizeQuality; fill-rule:evenodd; clip-rule:evenodd"
viewBox="0 0 15621 16256"
 xmlns:xlink="http://www.w3.org/1999/xlink"
 xmlns:xodm="http://www.corel.com/coreldraw/odm/2003">
 <defs>
  <style type="text/css">
   <![CDATA[
    .fil3 {fill:none}
    .fil1 {fill:#444444}
    .fil0 {fill:#444444;fill-rule:nonzero}
    .fil2 {fill:white;fill-rule:nonzero}
   ]]>
  </style>
    <clipPath id="id0">
     <path d="M2155.11 2977.33l11310.78 0c1185.57,0 2155.61,970.01 2155.61,2155.61l0 8967.46c0,1185.61 -970.04,2155.61 -2155.61,2155.61l-11310.78 0c-1185.58,0 -2155.61,-970 -2155.61,-2155.61l0 -8967.46c0,-1185.6 970.03,-2155.61 2155.61,-2155.61z"/>
    </clipPath>
 </defs>
 <g id="Layer_x0020_1">
  <metadata id="CorelCorpID_0Corel-Layer"/>
  <g id="_2349632373872">
   <path class="fil0" d="M4890.52 3934.38l5839.98 0c103.97,0 198.98,-43.02 268.17,-112.21 69.19,-69.19 112.21,-164.2 112.21,-268.17l0 -1905.59c0,-103.97 -43.02,-198.98 -112.21,-268.17 -69.19,-69.19 -164.2,-112.2 -268.17,-112.2l-5839.98 0c-103.96,0 -198.98,43.01 -268.17,112.2 -69.19,69.19 -112.2,164.2 -112.2,268.17l0 1905.59c0,103.97 43.01,198.98 112.2,268.17 69.19,69.19 164.21,112.21 268.17,112.21zm5839.98 1268.03l-5839.98 0c-453.91,0 -866.21,-185.29 -1164.67,-483.74 -298.45,-298.45 -483.74,-710.76 -483.74,-1164.67l0 -1905.59c0,-453.91 185.29,-866.21 483.74,-1164.67 298.46,-298.45 710.76,-483.74 1164.67,-483.74l5839.98 0c453.97,0 866.22,185.29 1164.67,483.74 298.45,298.46 483.74,710.7 483.74,1164.67l0 1905.59c0,453.97 -185.29,866.22 -483.74,1164.67 -298.45,298.45 -710.7,483.74 -1164.67,483.74z"/>
   <path class="fil1" d="M2155.11 2977.33l11310.78 0c1185.57,0 2155.61,970.01 2155.61,2155.61l0 8967.46c0,1185.61 -970.04,2155.61 -2155.61,2155.61l-11310.78 0c-1185.58,0 -2155.61,-970 -2155.61,-2155.61l0 -8967.46c0,-1185.6 970.03,-2155.61 2155.61,-2155.61z"/>
   <path class="fil1" d="M2155.11 2977.33l11310.78 0c1185.57,0 2155.61,970.01 2155.61,2155.61l0 8967.46c0,1185.61 -970.04,2155.61 -2155.61,2155.61l-11310.78 0c-1185.58,0 -2155.61,-970 -2155.61,-2155.61l0 -8967.46c0,-1185.6 970.03,-2155.61 2155.61,-2155.61z"/>
   <g style="clip-path:url(#id0)">
    <g>
     <path id="_1_0" class="fil1" d="M2907.98 19135.2c-3597.19,0 -6513.25,-3015.96 -6513.25,-6513.17 0,-7633.5 2389.59,-14281.02 10270.33,-14281.02 2822.67,0 5110.92,2288.25 5110.92,5110.92 0,2403.56 -1659.23,4419.18 -3894.72,4964.92 960.43,1134.69 1539.9,2602.16 1539.9,4205.18 0,3597.11 -2916.06,6513.17 -6513.18,6513.17z"/>
     <path class="fil2" d="M2907.98 19769.2c-1962.13,0 -3738.37,-815.32 -5028.84,-2105.8 -1308.07,-1307.98 -2118.41,-3106.7 -2118.41,-5041.37 0,-4268.46 739.11,-8254.8 2738.83,-11035.39 1721.63,-2393.93 4340.25,-3879.63 8165.5,-3879.63 1586.32,0 3022.63,643.07 4062.24,1682.76 1039.61,1039.61 1682.68,2475.92 1682.68,4062.16 0,1335.6 -456.93,2565.77 -1223.35,3542.67 -594.56,758.06 -1377.36,1362.83 -2278.85,1745.23 288.05,443.92 528.08,921.57 712.61,1425.63 281.23,767.94 434.77,1595.55 434.77,2456.57 0,1973.53 -800.07,3760.37 -2093.44,5053.74 -1293.45,1293.44 -3080.2,2093.43 -5053.74,2093.43zm-4132.34 -3002.31c1062.74,1062.74 2522.66,1734.32 4132.34,1734.32 1623.58,0 3093.37,-658.09 4157.24,-1721.95 1063.86,-1063.86 1721.86,-2533.66 1721.86,-4157.23 0,-712.22 -125.51,-1392.71 -355.5,-2020.68 -239.71,-654.8 -592.08,-1254.66 -1033.27,-1775.91l0.49 -0.41c-61.68,-72.75 -107.77,-160.6 -131.7,-259.62 -82.07,-339.2 126.4,-680.73 465.6,-762.8 987.25,-240.99 1847.62,-812.11 2458.33,-1590.57 595.69,-759.43 950.95,-1717.69 950.95,-2760.11 0,-1236.36 -501.09,-2355.63 -1311.19,-3165.73 -810.1,-810.02 -1929.37,-1311.11 -3165.73,-1311.11 -3366.88,0 -5653.77,1282.68 -7140.18,3349.54 -1822.49,2534.21 -2496.16,6265.52 -2496.16,10297.4 0,1587.11 668.29,3066.3 1746.92,4144.86z"/>
    </g>
   </g>
   <path class="fil3" d="M2155.11 2977.33l11310.78 0c1185.57,0 2155.61,970.01 2155.61,2155.61l0 8967.46c0,1185.61 -970.04,2155.61 -2155.61,2155.61l-11310.78 0c-1185.58,0 -2155.61,-970 -2155.61,-2155.61l0 -8967.46c0,-1185.6 970.03,-2155.61 2155.61,-2155.61z"/>
  </g>
 </g>
</svg>
