<?xml version="1.0" encoding="UTF-8"?>
<!DOCTYPE svg PUBLIC "-//W3C//DTD SVG 1.1//EN" "http://www.w3.org/Graphics/SVG/1.1/DTD/svg11.dtd">
<!-- Creator: CorelDRAW 2021 (64-Bit) -->
<svg xmlns="http://www.w3.org/2000/svg" xml:space="preserve" width="162.56mm" height="34.925mm" version="1.1" style="shape-rendering:geometricPrecision; text-rendering:geometricPrecision; image-rendering:optimizeQuality; fill-rule:evenodd; clip-rule:evenodd"
viewBox="0 0 16256 3492.5"
 xmlns:xlink="http://www.w3.org/1999/xlink"
 xmlns:xodm="http://www.corel.com/coreldraw/odm/2003">
 <defs>
  <style type="text/css">
   <![CDATA[
    .fil0 {fill:white;fill-rule:nonzero}
   ]]>
  </style>
 </defs>
 <g id="Layer_x0020_1">
  <metadata id="CorelCorpID_0Corel-Layer"/>
  <g id="_3090081546720">
   <path class="fil0" d="M1391.59 1449.73c133.16,28.38 240.12,94.41 320.89,198.1 80.76,103.68 121.14,222.1 121.14,355.26 0,192.09 -67.12,344.35 -201.36,456.76 -134.25,112.42 -321.43,168.63 -561.55,168.63l-1070.69 0 0 -2298.56 1034.68 0c233.56,0 416.38,53.48 548.44,160.44 132.06,106.96 198.1,252.12 198.1,435.48 0,135.34 -35.48,247.76 -106.42,337.26 -70.94,89.49 -165.35,151.71 -283.23,186.63zm-831.67 -189.91l366.72 0c91.68,0 162.08,-20.19 211.2,-60.57 49.11,-40.38 73.67,-99.87 73.67,-178.45 0,-78.58 -24.56,-138.61 -73.67,-180.09 -49.12,-41.47 -119.52,-62.21 -211.2,-62.21l-366.72 0 0 481.32zm412.56 916.81c93.87,0 166.45,-21.29 217.74,-63.85 51.3,-42.57 76.95,-104.23 76.95,-185 0,-80.77 -26.74,-144.07 -80.22,-189.91 -53.48,-45.84 -127.15,-68.76 -221.01,-68.76l-406.02 0 0 507.52 412.56 0z"/>
   <path class="fil0" d="M3753.7 801.42l0 1827.06 -559.91 0 0 -248.85c-56.75,80.77 -133.7,145.71 -230.84,194.82 -97.14,49.12 -204.64,73.68 -322.52,73.68 -139.7,0 -263.03,-31.11 -369.99,-93.32 -106.96,-62.21 -189.91,-152.26 -248.85,-270.13 -58.94,-117.88 -88.4,-256.49 -88.4,-415.84l0 -1067.42 556.63 0 0 992.11c0,122.24 31.65,217.2 94.95,284.87 63.3,67.67 148.44,101.5 255.4,101.5 109.14,0 195.36,-33.83 258.67,-101.5 63.3,-67.67 94.95,-162.63 94.95,-284.87l0 -992.11 559.91 0z"/>
   <path class="fil0" d="M4508.09 1105.93c65.49,-100.41 147.35,-179.54 245.57,-237.39 98.23,-57.84 207.38,-86.77 327.43,-86.77l0 592.65 -153.89 0c-139.7,0 -244.48,30.02 -314.33,90.05 -69.85,60.03 -104.78,165.35 -104.78,315.97l0 848.04 -559.9 0 0 -1827.06 559.9 0 0 304.51z"/>
   <path class="fil0" d="M5884.61 2654.67c-159.35,0 -301.23,-27.28 -425.66,-81.85 -124.42,-54.57 -222.65,-129.34 -294.68,-224.29 -72.04,-94.96 -112.42,-201.37 -121.15,-319.25l553.35 0c6.55,63.31 36.02,114.6 88.41,153.9 52.39,39.29 116.78,58.93 193.18,58.93 69.86,0 123.88,-13.64 162.08,-40.93 38.2,-27.28 57.3,-62.75 57.3,-106.41 0,-52.39 -27.28,-91.14 -81.86,-116.24 -54.57,-25.1 -142.97,-52.93 -265.21,-83.49 -130.98,-30.56 -240.12,-62.76 -327.43,-96.6 -87.32,-33.83 -162.63,-87.31 -225.93,-160.44 -63.3,-73.12 -94.96,-171.9 -94.96,-296.32 0,-104.78 28.93,-200.28 86.77,-286.5 57.85,-86.22 142.98,-154.44 255.4,-204.64 112.42,-50.21 246.12,-75.31 401.1,-75.31 229.2,0 409.83,56.75 541.9,170.26 132.06,113.51 207.92,264.13 227.56,451.85l-517.34 0c-8.73,-63.3 -36.56,-113.51 -83.49,-150.61 -46.93,-37.11 -108.6,-55.67 -185,-55.67 -65.49,0 -115.69,12.55 -150.62,37.66 -34.92,25.1 -52.39,59.48 -52.39,103.14 0,52.39 27.83,91.68 83.5,117.87 55.66,26.2 142.43,52.39 260.3,78.59 135.34,34.92 245.58,69.3 330.71,103.14 85.13,33.83 159.89,88.4 224.29,163.71 64.39,75.31 97.68,176.27 99.86,302.87 0,106.96 -30.01,202.46 -90.04,286.5 -60.03,84.05 -146.25,150.08 -258.67,198.1 -112.42,48.02 -242.84,72.03 -391.28,72.03z"/>
   <path class="fil0" d="M6648.85 1711.68c0,-187.73 35.47,-352.54 106.42,-494.42 70.94,-141.89 167.53,-251.03 289.77,-327.43 122.24,-76.4 258.67,-114.6 409.29,-114.6 128.79,0 241.75,26.19 338.89,78.58 97.14,52.39 171.9,121.15 224.29,206.28l0 -258.67 559.9 0 0 1827.06 -559.9 0 0 -258.67c-54.57,85.13 -130.43,153.89 -227.57,206.28 -97.13,52.39 -210.1,78.58 -338.89,78.58 -148.43,0 -283.77,-38.74 -406.01,-116.23 -122.24,-77.5 -218.83,-187.73 -289.77,-330.71 -70.95,-142.98 -106.42,-308.33 -106.42,-496.05zm1368.66 3.27c0,-139.7 -38.75,-249.94 -116.24,-330.7 -77.49,-80.77 -171.9,-121.15 -283.23,-121.15 -111.32,0 -205.73,39.83 -283.22,119.51 -77.5,79.67 -116.24,189.36 -116.24,329.07 0,139.7 38.74,250.48 116.24,332.34 77.49,81.85 171.9,122.78 283.22,122.78 111.33,0 205.74,-40.38 283.23,-121.15 77.49,-80.76 116.24,-191 116.24,-330.7z"/>
   <polygon class="fil0" points="10107.81,2628.48 9335.07,1613.45 9335.07,2628.48 8775.17,2628.48 8775.17,329.92 9335.07,329.92 9335.07,1338.41 10101.26,329.92 10759.39,329.92 9868.78,1456.28 10792.14,2628.48 "/>
   <path class="fil0" d="M12404.74 1685.48c0,52.39 -3.28,106.96 -9.82,163.72l-1267.16 0c8.73,113.51 45.3,200.27 109.69,260.3 64.39,60.03 143.52,90.05 237.39,90.05 139.7,0 236.84,-58.94 291.41,-176.82l595.92 0c-30.56,120.06 -85.68,228.11 -165.35,324.16 -79.67,96.05 -179.54,171.36 -299.6,225.93 -120.06,54.57 -254.3,81.85 -402.74,81.85 -178.99,0 -338.34,-38.2 -478.04,-114.6 -139.71,-76.4 -248.85,-185.54 -327.43,-327.43 -78.59,-141.88 -117.88,-307.78 -117.88,-497.69 0,-189.91 38.75,-355.81 116.24,-497.69 77.49,-141.89 186.09,-251.03 325.79,-327.43 139.7,-76.4 300.15,-114.6 481.32,-114.6 176.82,0 333.98,37.1 471.5,111.32 137.52,74.22 245.03,180.09 322.52,317.61 77.49,137.52 116.24,297.96 116.24,481.32zm-573 -147.34c0,-96.05 -32.75,-172.45 -98.23,-229.2 -65.49,-56.76 -147.35,-85.13 -245.58,-85.13 -93.86,0 -172.99,27.28 -237.38,81.85 -64.4,54.57 -104.23,132.07 -119.51,232.48l700.7 0z"/>
   <path class="fil0" d="M13051.1 1105.93c65.49,-100.41 147.35,-179.54 245.57,-237.39 98.23,-57.84 207.38,-86.77 327.43,-86.77l0 592.65 -153.89 0c-139.7,0 -244.48,30.02 -314.33,90.05 -69.85,60.03 -104.78,165.35 -104.78,315.97l0 848.04 -559.9 0 0 -1827.06 559.9 0 0 304.51z"/>
   <path class="fil0" d="M13962.65 611.51c-98.23,0 -178.45,-28.92 -240.66,-86.77 -62.21,-57.84 -93.32,-129.33 -93.32,-214.46 0,-87.32 31.11,-159.9 93.32,-217.75 62.21,-57.84 142.43,-86.76 240.66,-86.76 96.05,0 175.18,28.92 237.39,86.76 62.21,57.85 93.32,130.43 93.32,217.75 0,85.13 -31.11,156.62 -93.32,214.46 -62.21,57.85 -141.34,86.77 -237.39,86.77zm281.59 2252.72c0,224.83 -56.75,386.91 -170.26,486.23 -113.51,99.32 -271.77,148.98 -474.78,148.98l-219.37 0 0 -474.77 134.24 0c61.12,0 104.78,-12.01 130.97,-36.02 26.2,-24.01 39.3,-63.3 39.3,-117.87l0 -2069.36 559.9 0 0 2062.81z"/>
   <path class="fil0" d="M14327.42 1711.68c0,-187.73 35.47,-352.54 106.42,-494.42 70.94,-141.89 167.53,-251.03 289.77,-327.43 122.24,-76.4 258.67,-114.6 409.29,-114.6 128.79,0 241.75,26.19 338.89,78.58 97.14,52.39 171.9,121.15 224.29,206.28l0 -258.67 559.9 0 0 1827.06 -559.9 0 0 -258.67c-54.57,85.13 -130.43,153.89 -227.57,206.28 -97.13,52.39 -210.1,78.58 -338.89,78.58 -148.43,0 -283.77,-38.74 -406.01,-116.23 -122.24,-77.5 -218.83,-187.73 -289.77,-330.71 -70.95,-142.98 -106.42,-308.33 -106.42,-496.05zm1368.66 3.27c0,-139.7 -38.75,-249.94 -116.24,-330.7 -77.49,-80.77 -171.9,-121.15 -283.23,-121.15 -111.32,0 -205.73,39.83 -283.22,119.51 -77.5,79.67 -116.24,189.36 -116.24,329.07 0,139.7 38.74,250.48 116.24,332.34 77.49,81.85 171.9,122.78 283.22,122.78 111.33,0 205.74,-40.38 283.23,-121.15 77.49,-80.76 116.24,-191 116.24,-330.7z"/>
  </g>
 </g>
</svg>
