<?xml version="1.0" encoding="UTF-8"?>
<!DOCTYPE svg PUBLIC "-//W3C//DTD SVG 1.1//EN" "http://www.w3.org/Graphics/SVG/1.1/DTD/svg11.dtd">
<!-- Creator: CorelDRAW 2021 (64-Bit) -->
<svg xmlns="http://www.w3.org/2000/svg" xml:space="preserve" width="3345px" height="663px" version="1.1" style="shape-rendering:geometricPrecision; text-rendering:geometricPrecision; image-rendering:optimizeQuality; fill-rule:evenodd; clip-rule:evenodd"
viewBox="0 0 3345 663.06"
 xmlns:xlink="http://www.w3.org/1999/xlink"
 xmlns:xodm="http://www.corel.com/coreldraw/odm/2003">
 <defs>
  <style type="text/css">
   <![CDATA[
    .fil5 {fill:none}
    .fil3 {fill:#3A3379}
    .fil2 {fill:#6E62E4}
    .fil1 {fill:#3A3379;fill-rule:nonzero}
    .fil0 {fill:#444444;fill-rule:nonzero}
    .fil4 {fill:white;fill-rule:nonzero}
   ]]>
  </style>
     <clipPath id="id0">
      <path d="M83.11 116.27l439.63 0c46.09,0 83.79,37.71 83.79,83.79l0 348.55c0,46.08 -37.7,83.78 -83.79,83.78l-439.63 0c-46.08,0 -83.78,-37.7 -83.78,-83.78l0 -348.55c0,-46.08 37.7,-83.79 83.78,-83.79z"/>
     </clipPath>
 </defs>
 <g id="Layer_x0020_1">
  <metadata id="CorelCorpID_0Corel-Layer"/>
  <g id="_3088863684992">
   <path class="fil0" d="M924.3 329.79c21.68,4.62 39.1,15.37 52.25,32.26 13.15,16.88 19.72,36.16 19.72,57.84 0,31.27 -10.93,56.06 -32.78,74.36 -21.86,18.3 -52.34,27.46 -91.43,27.46l-174.32 0 0 -374.23 168.46 0c38.02,0 67.79,8.7 89.29,26.12 21.5,17.41 32.25,41.05 32.25,70.9 0,22.03 -5.77,40.34 -17.32,54.91 -11.55,14.57 -26.92,24.7 -46.12,30.38zm-135.4 -30.92l59.71 0c14.92,0 26.38,-3.28 34.38,-9.86 8,-6.57 11.99,-16.26 11.99,-29.05 0,-12.8 -3.99,-22.57 -11.99,-29.32 -8,-6.75 -19.46,-10.13 -34.38,-10.13l-59.71 0 0 78.36zm67.17 149.27c15.28,0 27.1,-3.47 35.45,-10.4 8.35,-6.93 12.53,-16.97 12.53,-30.12 0,-13.14 -4.36,-23.45 -13.06,-30.91 -8.71,-7.47 -20.71,-11.2 -35.99,-11.2l-66.1 0 0 82.63 67.17 0z"/>
   <path class="fil0" d="M1308.87 224.24l0 297.47 -91.15 0 0 -40.52c-9.24,13.15 -21.77,23.72 -37.59,31.72 -15.81,8 -33.31,11.99 -52.51,11.99 -22.74,0 -42.82,-5.06 -60.24,-15.19 -17.41,-10.13 -30.91,-24.79 -40.51,-43.98 -9.6,-19.19 -14.39,-41.76 -14.39,-67.7l0 -173.79 90.62 0 0 161.53c0,19.9 5.16,35.36 15.46,46.38 10.31,11.01 24.17,16.52 41.58,16.52 17.77,0 31.81,-5.51 42.12,-16.52 10.3,-11.02 15.46,-26.48 15.46,-46.38l0 -161.53 91.15 0z"/>
   <path class="fil0" d="M1431.7 273.82c10.66,-16.35 23.99,-29.23 39.98,-38.65 15.99,-9.42 33.76,-14.13 53.31,-14.13l0 96.49 -25.06 0c-22.74,0 -39.8,4.89 -51.17,14.66 -11.37,9.78 -17.06,26.92 -17.06,51.45l0 138.07 -91.16 0 0 -297.47 91.16 0 0 49.58z"/>
   <path class="fil0" d="M1655.81 525.97c-25.94,0 -49.04,-4.44 -69.3,-13.33 -20.26,-8.88 -36.25,-21.05 -47.98,-36.51 -11.72,-15.46 -18.3,-32.79 -19.72,-51.98l90.09 0c1.07,10.31 5.87,18.66 14.39,25.06 8.53,6.39 19.02,9.59 31.46,9.59 11.37,0 20.17,-2.22 26.38,-6.66 6.22,-4.45 9.33,-10.22 9.33,-17.33 0,-8.53 -4.44,-14.84 -13.32,-18.92 -8.89,-4.09 -23.28,-8.62 -43.18,-13.6 -21.33,-4.97 -39.1,-10.21 -53.31,-15.72 -14.22,-5.51 -26.48,-14.22 -36.79,-26.12 -10.3,-11.91 -15.46,-27.99 -15.46,-48.25 0,-17.06 4.71,-32.61 14.13,-46.64 9.42,-14.04 23.28,-25.15 41.58,-33.32 18.31,-8.18 40.07,-12.26 65.31,-12.26 37.31,0 66.72,9.24 88.22,27.72 21.5,18.48 33.85,43 37.05,73.56l-84.23 0c-1.42,-10.3 -5.95,-18.48 -13.59,-24.52 -7.64,-6.04 -17.68,-9.06 -30.12,-9.06 -10.66,0 -18.83,2.04 -24.52,6.13 -5.69,4.09 -8.53,9.68 -8.53,16.79 0,8.53 4.53,14.93 13.59,19.19 9.07,4.27 23.19,8.53 42.38,12.8 22.04,5.68 39.99,11.28 53.85,16.79 13.86,5.51 26.03,14.39 36.51,26.65 10.49,12.27 15.91,28.7 16.26,49.31 0,17.42 -4.89,32.97 -14.66,46.65 -9.77,13.68 -23.81,24.43 -42.11,32.25 -18.3,7.82 -39.54,11.73 -63.71,11.73z"/>
   <path class="fil0" d="M1780.23 372.44c0,-30.56 5.78,-57.4 17.33,-80.5 11.55,-23.1 27.27,-40.87 47.17,-53.31 19.91,-12.43 42.12,-18.65 66.64,-18.65 20.97,0 39.36,4.26 55.18,12.79 15.81,8.53 27.98,19.73 36.51,33.59l0 -42.12 91.16 0 0 297.47 -91.16 0 0 -42.12c-8.88,13.86 -21.23,25.06 -37.05,33.59 -15.81,8.53 -34.2,12.79 -55.17,12.79 -24.17,0 -46.2,-6.31 -66.11,-18.92 -19.9,-12.62 -35.62,-30.57 -47.17,-53.85 -11.55,-23.27 -17.33,-50.2 -17.33,-80.76zm222.83 0.53c0,-22.74 -6.31,-40.69 -18.92,-53.84 -12.62,-13.15 -27.99,-19.72 -46.12,-19.72 -18.12,0 -33.49,6.48 -46.11,19.45 -12.61,12.98 -18.92,30.84 -18.92,53.58 0,22.75 6.31,40.78 18.92,54.11 12.62,13.33 27.99,19.99 46.11,19.99 18.13,0 33.5,-6.58 46.12,-19.72 12.61,-13.15 18.92,-31.1 18.92,-53.85z"/>
   <polygon class="fil0" points="2343.39,521.71 2217.58,356.45 2217.58,521.71 2126.42,521.71 2126.42,147.48 2217.58,147.48 2217.58,311.67 2342.32,147.48 2449.47,147.48 2304.47,330.86 2454.81,521.71 "/>
   <path class="fil0" d="M2717.35 368.18c0,8.53 -0.53,17.41 -1.6,26.65l-206.31 0c1.43,18.48 7.38,32.61 17.86,42.38 10.49,9.77 23.37,14.66 38.65,14.66 22.75,0 38.56,-9.59 47.45,-28.79l97.02 0c-4.98,19.55 -13.95,37.14 -26.92,52.78 -12.97,15.64 -29.23,27.9 -48.78,36.78 -19.55,8.89 -41.4,13.33 -65.57,13.33 -29.14,0 -55.09,-6.22 -77.83,-18.66 -22.75,-12.44 -40.52,-30.21 -53.31,-53.31 -12.79,-23.1 -19.19,-50.11 -19.19,-81.03 0,-30.92 6.31,-57.93 18.92,-81.03 12.62,-23.1 30.3,-40.87 53.05,-53.31 22.74,-12.43 48.86,-18.65 78.36,-18.65 28.79,0 54.38,6.04 76.76,18.12 22.39,12.08 39.9,29.32 52.51,51.71 12.62,22.39 18.93,48.51 18.93,78.37zm-93.29 -23.99c0,-15.64 -5.33,-28.08 -15.99,-37.32 -10.67,-9.24 -23.99,-13.86 -39.99,-13.86 -15.28,0 -28.16,4.44 -38.65,13.33 -10.48,8.88 -16.96,21.5 -19.45,37.85l114.08 0z"/>
   <path class="fil0" d="M2822.58 273.82c10.66,-16.35 23.99,-29.23 39.98,-38.65 16,-9.42 33.77,-14.13 53.31,-14.13l0 96.49 -25.05 0c-22.75,0 -39.81,4.89 -51.18,14.66 -11.37,9.78 -17.06,26.92 -17.06,51.45l0 138.07 -91.16 0 0 -297.47 91.16 0 0 49.58z"/>
   <path class="fil0" d="M2970.99 193.32c-15.99,0 -29.05,-4.71 -39.18,-14.12 -10.13,-9.42 -15.19,-21.06 -15.19,-34.92 0,-14.22 5.06,-26.04 15.19,-35.45 10.13,-9.42 23.19,-14.13 39.18,-14.13 15.64,0 28.52,4.71 38.65,14.13 10.13,9.41 15.2,21.23 15.2,35.45 0,13.86 -5.07,25.5 -15.2,34.92 -10.13,9.41 -23.01,14.12 -38.65,14.12zm45.85 366.77c0,36.6 -9.24,62.99 -27.72,79.16 -18.48,16.17 -44.25,24.26 -77.3,24.26l-35.72 0 0 -77.3 21.86 0c9.95,0 17.06,-1.95 21.32,-5.86 4.27,-3.91 6.4,-10.31 6.4,-19.2l0 -336.91 91.16 0 0 335.85z"/>
   <path class="fil0" d="M3030.38 372.44c0,-30.56 5.78,-57.4 17.33,-80.5 11.55,-23.1 27.28,-40.87 47.18,-53.31 19.9,-12.43 42.11,-18.65 66.63,-18.65 20.97,0 39.36,4.26 55.18,12.79 15.81,8.53 27.99,19.73 36.52,33.59l0 -42.12 91.15 0 0 297.47 -91.15 0 0 -42.12c-8.89,13.86 -21.24,25.06 -37.05,33.59 -15.82,8.53 -34.21,12.79 -55.18,12.79 -24.17,0 -46.2,-6.31 -66.1,-18.92 -19.9,-12.62 -35.63,-30.57 -47.18,-53.85 -11.55,-23.27 -17.33,-50.2 -17.33,-80.76zm222.84 0.53c0,-22.74 -6.31,-40.69 -18.93,-53.84 -12.62,-13.15 -27.99,-19.72 -46.11,-19.72 -18.13,0 -33.5,6.48 -46.11,19.45 -12.62,12.98 -18.93,30.84 -18.93,53.58 0,22.75 6.31,40.78 18.93,54.11 12.61,13.33 27.98,19.99 46.11,19.99 18.12,0 33.49,-6.58 46.11,-19.72 12.62,-13.15 18.93,-31.1 18.93,-53.85z"/>
   <g id="_2349632357120">
    <path class="fil1" d="M189.43 153.47l226.99 0c4.05,0 7.74,-1.67 10.43,-4.36 2.69,-2.69 4.36,-6.38 4.36,-10.42l0 -74.07c0,-4.04 -1.67,-7.73 -4.36,-10.42 -2.69,-2.69 -6.38,-4.36 -10.43,-4.36l-226.99 0c-4.04,0 -7.73,1.67 -10.42,4.36 -2.69,2.69 -4.36,6.38 -4.36,10.42l0 74.07c0,4.04 1.67,7.73 4.36,10.42 2.69,2.69 6.38,4.36 10.42,4.36zm226.99 49.29l-226.99 0c-17.64,0 -33.67,-7.2 -45.26,-18.8 -11.61,-11.6 -18.81,-27.63 -18.81,-45.27l0 -74.07c0,-17.64 7.2,-33.67 18.81,-45.27 11.59,-11.6 27.62,-18.8 45.26,-18.8l226.99 0c17.65,0 33.67,7.2 45.27,18.8 11.6,11.6 18.8,27.63 18.8,45.27l0 74.07c0,17.64 -7.2,33.67 -18.8,45.27 -11.6,11.6 -27.62,18.8 -45.27,18.8z"/>
    <path class="fil2" d="M83.11 116.27l439.63 0c46.09,0 83.79,37.71 83.79,83.79l0 348.55c0,46.08 -37.7,83.78 -83.79,83.78l-439.63 0c-46.08,0 -83.78,-37.7 -83.78,-83.78l0 -348.55c0,-46.08 37.7,-83.79 83.78,-83.79z"/>
    <g>
    </g>
    <g style="clip-path:url(#id0)">
     <g>
      <path id="_1" class="fil3" d="M112.38 744.3c-139.82,0 -253.16,-117.22 -253.16,-253.15 0,-296.7 92.88,-555.08 399.19,-555.08 109.71,0 198.65,88.94 198.65,198.65 0,93.42 -64.49,171.77 -151.38,192.98 37.33,44.1 59.85,101.14 59.85,163.45 0,139.81 -113.34,253.15 -253.15,253.15z"/>
      <path class="fil4" d="M112.38 768.95c-76.27,0 -145.31,-31.69 -195.47,-81.85 -50.84,-50.84 -82.34,-120.75 -82.34,-195.95 0,-165.91 28.73,-320.85 106.46,-428.93 66.91,-93.05 168.7,-150.79 317.38,-150.79 61.65,0 117.48,24.99 157.89,65.4 40.41,40.41 65.4,96.24 65.4,157.89 0,51.91 -17.76,99.73 -47.55,137.7 -23.11,29.46 -53.53,52.97 -88.57,67.83 11.19,17.26 20.52,35.82 27.7,55.42 10.93,29.84 16.89,62.01 16.89,95.48 0,76.71 -31.09,146.16 -81.36,196.43 -50.28,50.27 -119.73,81.37 -196.43,81.37zm-160.62 -116.7c41.31,41.31 98.05,67.41 160.62,67.41 63.1,0 120.23,-25.58 161.58,-66.93 41.35,-41.35 66.93,-98.48 66.93,-161.58 0,-27.69 -4.88,-54.13 -13.82,-78.54 -9.32,-25.45 -23.01,-48.77 -40.16,-69.03l0.02 -0.01c-2.4,-2.83 -4.19,-6.25 -5.12,-10.1 -3.19,-13.18 4.91,-26.46 18.09,-29.64 38.38,-9.37 71.82,-31.57 95.56,-61.83 23.15,-29.52 36.96,-66.76 36.96,-107.28 0,-48.05 -19.48,-91.56 -50.97,-123.04 -31.48,-31.49 -74.99,-50.97 -123.04,-50.97 -130.87,0 -219.75,49.86 -277.53,130.19 -70.84,98.51 -97.02,243.54 -97.02,400.25 0,61.69 25.97,119.18 67.9,161.1z"/>
     </g>
    </g>
    <path class="fil5" d="M83.11 116.27l439.63 0c46.09,0 83.79,37.71 83.79,83.79l0 348.55c0,46.08 -37.7,83.78 -83.79,83.78l-439.63 0c-46.08,0 -83.78,-37.7 -83.78,-83.78l0 -348.55c0,-46.08 37.7,-83.79 83.78,-83.79z"/>
    <path class="fil5" d="M83.11 116.27l439.63 0c46.09,0 83.79,37.71 83.79,83.79l0 348.55c0,46.08 -37.7,83.78 -83.79,83.78l-439.63 0c-46.08,0 -83.78,-37.7 -83.78,-83.78l0 -348.55c0,-46.08 37.7,-83.79 83.78,-83.79z"/>
   </g>
  </g>
 </g>
</svg>
