<?xml version="1.0" encoding="UTF-8"?>
<!DOCTYPE svg PUBLIC "-//W3C//DTD SVG 1.1//EN" "http://www.w3.org/Graphics/SVG/1.1/DTD/svg11.dtd">
<!-- Creator: CorelDRAW 2021 (64-Bit) -->
<svg xmlns="http://www.w3.org/2000/svg" xml:space="preserve" width="283.185mm" height="56.134mm" version="1.1" style="shape-rendering:geometricPrecision; text-rendering:geometricPrecision; image-rendering:optimizeQuality; fill-rule:evenodd; clip-rule:evenodd"
viewBox="0 0 28318.46 5613.4"
 xmlns:xlink="http://www.w3.org/1999/xlink"
 xmlns:xodm="http://www.corel.com/coreldraw/odm/2003">
 <defs>
  <style type="text/css">
   <![CDATA[
    .fil3 {fill:none}
    .fil1 {fill:#444444}
    .fil0 {fill:#444444;fill-rule:nonzero}
    .fil2 {fill:white;fill-rule:nonzero}
   ]]>
  </style>
     <clipPath id="id0">
      <path d="M703.61 984.37l3721.89 0c390.13,0 709.31,319.18 709.31,709.31l0 2950.8c0,390.13 -319.18,709.31 -709.31,709.31l-3721.89 0c-390.13,0 -709.31,-319.18 -709.31,-709.31l0 -2950.8c0,-390.13 319.18,-709.31 709.31,-709.31z"/>
     </clipPath>
 </defs>
 <g id="Layer_x0020_1">
  <metadata id="CorelCorpID_0Corel-Layer"/>
  <g id="_3089924648640">
   <path class="fil0" d="M7825.07 2792c183.54,39.11 330.96,130.13 442.29,273.04 111.32,142.91 166.98,306.14 166.98,489.67 0,264.77 -92.52,474.63 -277.55,629.58 -185.04,154.95 -443.04,232.42 -774,232.42l-1475.78 0 0 -3168.19 1426.14 0c321.93,0 573.91,73.71 755.94,221.14 182.03,147.43 273.04,347.51 273.04,600.24 0,186.54 -48.89,341.49 -146.67,464.85 -97.79,123.36 -227.91,209.11 -390.39,257.25zm-1146.32 -261.76l505.47 0c126.36,0 223.39,-27.83 291.09,-83.49 67.7,-55.67 101.54,-137.65 101.54,-245.97 0,-108.31 -33.84,-191.05 -101.54,-248.22 -67.7,-57.16 -164.73,-85.75 -291.09,-85.75l-505.47 0 0 663.43zm568.65 1263.66c129.37,0 229.41,-29.33 300.12,-88 70.7,-58.67 106.06,-143.67 106.06,-254.99 0,-111.32 -36.86,-198.58 -110.57,-261.76 -73.72,-63.18 -175.26,-94.78 -304.64,-94.78l-559.62 0 0 699.53 568.65 0z"/>
   <path class="fil0" d="M11080.81 1898.41l0 2518.3 -771.73 0 0 -342.99c-78.23,111.32 -184.29,200.83 -318.18,268.52 -133.89,67.7 -282.07,101.55 -444.54,101.55 -192.55,0 -362.55,-42.88 -509.98,-128.62 -147.42,-85.75 -261.75,-209.86 -342.99,-372.33 -81.24,-162.48 -121.85,-353.53 -121.85,-573.17l0 -1471.26 767.22 0 0 1367.46c0,168.49 43.63,299.37 130.88,392.64 87.25,93.27 204.59,139.91 352.02,139.91 150.44,0 269.28,-46.64 356.54,-139.91 87.25,-93.27 130.88,-224.15 130.88,-392.64l0 -1367.46 771.73 0z"/>
   <path class="fil0" d="M12120.63 2318.12c90.26,-138.4 203.09,-247.46 338.48,-327.2 135.39,-79.73 285.83,-119.59 451.31,-119.59l0 816.87 -212.11 0c-192.56,0 -336.98,41.37 -433.26,124.11 -96.28,82.74 -144.42,227.91 -144.42,435.51l0 1168.89 -771.74 0 0 -2518.3 771.74 0 0 419.71z"/>
   <path class="fil0" d="M14017.96 4452.81c-219.63,0 -415.2,-37.6 -586.7,-112.82 -171.5,-75.22 -306.89,-178.27 -406.18,-309.15 -99.28,-130.88 -154.95,-277.55 -166.98,-440.03l762.71 0c9.03,87.26 49.65,157.96 121.85,212.12 72.21,54.16 160.97,81.24 266.28,81.24 96.28,0 170.74,-18.81 223.39,-56.42 52.66,-37.61 78.98,-86.5 78.98,-146.67 0,-72.21 -37.61,-125.62 -112.82,-160.22 -75.22,-34.6 -197.07,-72.96 -365.56,-115.08 -180.53,-42.12 -330.96,-86.5 -451.31,-133.14 -120.35,-46.63 -224.15,-120.35 -311.41,-221.14 -87.25,-100.79 -130.88,-236.94 -130.88,-408.43 0,-144.42 39.87,-276.06 119.6,-394.9 79.73,-118.84 197.07,-212.87 352.02,-282.07 154.95,-69.2 339.24,-103.8 552.86,-103.8 315.91,0 564.88,78.23 746.91,234.68 182.03,156.46 286.58,364.06 313.66,622.81l-713.07 0c-12.03,-87.25 -50.39,-156.46 -115.08,-207.6 -64.69,-51.15 -149.68,-76.73 -254.99,-76.73 -90.26,0 -159.46,17.3 -207.6,51.9 -48.14,34.6 -72.21,81.99 -72.21,142.17 0,72.21 38.36,126.36 115.08,162.47 76.73,36.1 196.32,72.21 358.79,108.31 186.54,48.14 338.49,95.53 455.83,142.16 117.34,46.64 220.38,121.86 309.14,225.66 88.76,103.8 134.64,242.95 137.65,417.46 0,147.43 -41.37,279.06 -124.11,394.89 -82.74,115.84 -201.58,206.85 -356.53,273.05 -154.95,66.19 -334.72,99.28 -539.32,99.28z"/>
   <path class="fil0" d="M15071.27 3153.04c0,-258.75 48.89,-485.9 146.67,-681.47 97.79,-195.57 230.92,-346.01 399.41,-451.31 168.49,-105.31 356.53,-157.96 564.14,-157.96 177.51,0 333.21,36.11 467.1,108.32 133.89,72.2 236.94,166.98 309.15,284.32l0 -356.53 771.74 0 0 2518.3 -771.74 0 0 -356.53c-75.22,117.34 -179.77,212.11 -313.66,284.32 -133.89,72.21 -289.59,108.31 -467.11,108.31 -204.59,0 -391.13,-53.4 -559.62,-160.21 -168.49,-106.81 -301.62,-258.75 -399.41,-455.82 -97.78,-197.07 -146.67,-424.98 -146.67,-683.74zm1886.47 4.52c0,-192.56 -53.41,-344.5 -160.22,-455.82 -106.81,-111.33 -236.93,-166.99 -390.38,-166.99 -153.44,0 -283.57,54.91 -390.38,164.73 -106.81,109.82 -160.22,261.01 -160.22,453.56 0,192.56 53.41,345.26 160.22,458.08 106.81,112.83 236.94,169.24 390.38,169.24 153.45,0 283.57,-55.66 390.38,-166.98 106.81,-111.32 160.22,-263.26 160.22,-455.82z"/>
   <polygon class="fil0" points="19838.92,4416.71 18773.83,3017.65 18773.83,4416.71 18002.09,4416.71 18002.09,1248.52 18773.83,1248.52 18773.83,2638.55 19829.89,1248.52 20737.02,1248.52 19509.46,2801.02 20782.16,4416.71 "/>
   <path class="fil0" d="M23004.83 3116.94c0,72.21 -4.52,147.43 -13.54,225.65l-1746.57 0c12.04,156.46 62.43,276.06 151.19,358.8 88.76,82.74 197.82,124.11 327.2,124.11 192.56,0 326.45,-81.24 401.66,-243.71l821.39 0c-42.13,165.48 -118.1,314.41 -227.91,446.79 -109.82,132.39 -247.47,236.19 -412.95,311.41 -165.48,75.22 -350.52,112.82 -555.11,112.82 -246.72,0 -466.35,-52.65 -658.91,-157.95 -192.56,-105.31 -343,-255.75 -451.31,-451.31 -108.32,-195.57 -162.47,-424.23 -162.47,-685.99 0,-261.76 53.4,-490.42 160.21,-685.99 106.81,-195.57 256.5,-346.01 449.05,-451.31 192.56,-105.31 413.7,-157.96 663.43,-157.96 243.7,0 460.33,51.15 649.88,153.45 189.55,102.29 337.73,248.22 444.54,437.77 106.81,189.55 160.22,410.69 160.22,663.42zm-789.79 -203.09c0,-132.38 -45.13,-237.69 -135.4,-315.92 -90.26,-78.22 -203.09,-117.34 -338.48,-117.34 -129.37,0 -238.44,37.61 -327.2,112.83 -88.75,75.22 -143.66,182.03 -164.73,320.43l965.81 0z"/>
   <path class="fil0" d="M23895.71 2318.12c90.26,-138.4 203.09,-247.46 338.48,-327.2 135.39,-79.73 285.83,-119.59 451.31,-119.59l0 816.87 -212.11 0c-192.56,0 -336.98,41.37 -433.26,124.11 -96.28,82.74 -144.42,227.91 -144.42,435.51l0 1168.89 -771.74 0 0 -2518.3 771.74 0 0 419.71z"/>
   <path class="fil0" d="M25152.15 1636.65c-135.39,0 -245.96,-39.87 -331.71,-119.6 -85.75,-79.73 -128.62,-178.27 -128.62,-295.61 0,-120.35 42.87,-220.39 128.62,-300.12 85.75,-79.73 196.32,-119.6 331.71,-119.6 132.39,0 241.45,39.87 327.2,119.6 85.75,79.73 128.63,179.77 128.63,300.12 0,117.34 -42.88,215.88 -128.63,295.61 -85.75,79.73 -194.81,119.6 -327.2,119.6zm388.13 3105c0,309.9 -78.23,533.3 -234.68,670.2 -156.45,136.89 -374.59,205.34 -654.4,205.34l-302.38 0 0 -654.4 185.04 0c84.25,0 144.42,-16.54 180.52,-49.64 36.11,-33.1 54.16,-87.25 54.16,-162.47l0 -2852.27 771.74 0 0 2843.24z"/>
   <path class="fil0" d="M25654.95 3153.04c0,-258.75 48.89,-485.9 146.67,-681.47 97.79,-195.57 230.92,-346.01 399.41,-451.31 168.49,-105.31 356.53,-157.96 564.14,-157.96 177.51,0 333.21,36.11 467.1,108.32 133.89,72.2 236.94,166.98 309.15,284.32l0 -356.53 771.74 0 0 2518.3 -771.74 0 0 -356.53c-75.22,117.34 -179.77,212.11 -313.66,284.32 -133.89,72.21 -289.59,108.31 -467.11,108.31 -204.59,0 -391.13,-53.4 -559.62,-160.21 -168.49,-106.81 -301.62,-258.75 -399.41,-455.82 -97.78,-197.07 -146.67,-424.98 -146.67,-683.74zm1886.47 4.52c0,-192.56 -53.41,-344.5 -160.22,-455.82 -106.81,-111.33 -236.93,-166.99 -390.38,-166.99 -153.44,0 -283.57,54.91 -390.38,164.73 -106.81,109.82 -160.22,261.01 -160.22,453.56 0,192.56 53.41,345.26 160.22,458.08 106.81,112.83 236.94,169.24 390.38,169.24 153.45,0 283.57,-55.66 390.38,-166.98 106.81,-111.32 160.22,-263.26 160.22,-455.82z"/>
   <g id="_2349632357120">
    <path class="fil0" d="M1603.73 1299.3l1921.68 0c34.22,0 65.48,-14.17 88.23,-36.92 22.78,-22.78 36.94,-54.04 36.94,-88.26l0 -627.05c0,-34.19 -14.16,-65.48 -36.94,-88.23 -22.75,-22.77 -54.01,-36.91 -88.23,-36.91l-1921.68 0c-34.22,0 -65.48,14.14 -88.23,36.91 -22.78,22.75 -36.95,54.04 -36.95,88.23l0 627.05c0,34.22 14.17,65.48 36.95,88.26 22.75,22.75 54.01,36.92 88.23,36.92zm1921.68 417.24l-1921.68 0c-149.35,0 -285.04,-60.96 -383.24,-159.18 -98.21,-98.2 -159.18,-233.86 -159.18,-383.24l0 -627.05c0,-149.35 60.97,-285.01 159.18,-383.23 98.2,-98.22 233.89,-159.18 383.24,-159.18l1921.68 0c149.38,0 285.04,60.96 383.23,159.18 98.22,98.22 159.18,233.86 159.18,383.23l0 627.05c0,149.38 -60.96,285.04 -159.18,383.24 -98.19,98.22 -233.85,159.18 -383.23,159.18z"/>
    <path class="fil1" d="M703.61 984.37l3721.89 0c390.13,0 709.31,319.18 709.31,709.31l0 2950.8c0,390.13 -319.18,709.31 -709.31,709.31l-3721.89 0c-390.13,0 -709.31,-319.18 -709.31,-709.31l0 -2950.8c0,-390.13 319.18,-709.31 709.31,-709.31z"/>
    <path class="fil1" d="M703.61 984.37l3721.89 0c390.13,0 709.31,319.18 709.31,709.31l0 2950.8c0,390.13 -319.18,709.31 -709.31,709.31l-3721.89 0c-390.13,0 -709.31,-319.18 -709.31,-709.31l0 -2950.8c0,-390.13 319.18,-709.31 709.31,-709.31z"/>
    <g style="clip-path:url(#id0)">
     <g>
      <path id="_1_0" class="fil1" d="M951.36 6301.21c-1183.68,0 -2143.22,-992.42 -2143.22,-2143.2 0,-2511.84 786.31,-4699.25 3379.51,-4699.25 928.82,0 1681.78,752.96 1681.78,1681.78 0,790.91 -545.98,1454.16 -1281.58,1633.74 316.03,373.37 506.71,856.25 506.71,1383.73 0,1183.65 -959.55,2143.2 -2143.2,2143.2z"/>
      <path class="fil2" d="M951.36 6509.83c-645.65,0 -1230.13,-268.29 -1654.77,-692.92 -430.42,-430.4 -697.07,-1022.28 -697.07,-1658.9 0,-1404.56 243.21,-2716.29 901.23,-3631.26 566.51,-787.73 1428.18,-1276.61 2686.9,-1276.61 521.99,0 994.61,211.61 1336.7,553.72 342.09,342.09 553.7,814.72 553.7,1336.68 0,439.49 -150.36,844.28 -402.55,1165.73 -195.65,249.45 -453.23,448.45 -749.87,574.28 94.78,146.08 173.77,303.25 234.49,469.12 92.54,252.69 143.06,525.02 143.06,808.34 0,649.41 -263.26,1237.37 -688.85,1662.96 -425.62,425.62 -1013.56,688.86 -1662.97,688.86zm-1359.77 -987.93c349.7,349.7 830.1,570.69 1359.77,570.69 534.25,0 1017.89,-216.55 1367.96,-566.62 350.07,-350.07 566.59,-833.71 566.59,-1367.96 0,-234.36 -41.3,-458.28 -116.98,-664.91 -78.87,-215.47 -194.82,-412.86 -340,-584.38l0.16 -0.13c-20.29,-23.94 -35.46,-52.85 -43.34,-85.43 -27,-111.62 41.6,-224 153.21,-251 324.86,-79.3 607.97,-267.23 808.93,-523.39 196.02,-249.9 312.92,-565.22 312.92,-908.23 0,-406.83 -164.89,-775.13 -431.46,-1041.7 -266.57,-266.54 -634.87,-431.43 -1041.7,-431.43 -1107.89,0 -1860.4,422.07 -2349.52,1102.18 -599.7,833.9 -821.37,2061.71 -821.37,3388.42 0,522.25 219.9,1008.99 574.83,1363.89z"/>
     </g>
    </g>
    <path class="fil3" d="M703.61 984.37l3721.89 0c390.13,0 709.31,319.18 709.31,709.31l0 2950.8c0,390.13 -319.18,709.31 -709.31,709.31l-3721.89 0c-390.13,0 -709.31,-319.18 -709.31,-709.31l0 -2950.8c0,-390.13 319.18,-709.31 709.31,-709.31z"/>
   </g>
  </g>
 </g>
</svg>
